<svg width="485" height="456" viewBox="0 0 485 456" fill="none" xmlns="http://www.w3.org/2000/svg">
<rect width="485" height="456" fill="white"/>
<path d="M260.756 190.192C261.969 189.56 263.377 189.287 264.745 189.539C266.113 189.789 267.32 190.53 268.119 191.624C268.918 192.717 269.257 194.093 269.08 195.472C268.904 196.852 268.215 198.111 267.244 199.075C262.566 203.731 258.053 208.482 253.668 213.322C214.407 257.055 184.715 306.587 157.722 357.636C149.315 373.722 140.805 390.782 133.802 406.517C125.966 427.294 96.4259 422.094 96.6025 399.889C96.6733 400.611 96.7726 400.418 96.7373 399.988C96.7187 399.581 96.5931 398.847 96.4287 398.113C96.0652 396.526 95.5067 394.708 94.79 392.72C93.3928 388.832 91.5593 384.666 89.5449 380.514C85.5232 372.235 80.7228 363.851 75.5811 355.76C65.1966 339.546 53.3088 323.925 39.0547 310.588C34.3958 306.262 29.4563 302.202 24.1338 298.601C23.2056 297.982 22.4523 297.087 22.0859 296.013C21.7193 294.94 21.7634 293.787 22.2207 292.784C22.6782 291.78 23.5196 290.99 24.5703 290.563C25.6213 290.135 26.79 290.117 27.8662 290.412C34.6318 292.325 41.211 294.981 47.5332 298.118C66.9522 307.844 84.0102 321.636 98.9355 337.339C104.044 342.748 108.93 348.443 113.517 354.472C116.034 349.145 118.661 343.878 121.397 338.621C150.061 284.123 190.526 233.992 242.954 200.511C248.76 196.829 254.694 193.382 260.756 190.192Z" fill="#0D3B2A"/>
<path d="M398.938 47.7443C410.401 167.25 386.651 257.751 345.475 315.234C304.223 372.82 244.773 397.596 188.306 381.529L195.694 355.56C238.727 367.804 287.277 350.113 323.525 299.511C356.723 253.167 379.001 179.505 374.162 79.3204C357.296 90.7881 336.564 96.6768 315.69 100.576C299.596 103.583 282.303 105.581 265.385 107.674C248.261 109.792 231.321 112.027 215.005 115.509C182.324 122.483 153.895 134.119 133.726 157.813C113.637 181.411 99.9206 219.154 101.496 282.263L74.5039 282.937C72.8295 215.866 87.3002 170.697 113.165 140.312C138.949 110.022 174.238 96.601 209.37 89.1037C226.96 85.3499 244.95 82.9958 262.07 80.8781C279.396 78.7349 295.662 76.8503 310.731 74.0353C341.323 68.3205 362.662 59.4428 374.173 41.6896L395.24 9.19447L398.938 47.7443Z" fill="#0D3B2A"/>
</svg>
