<svg width="355" height="140" viewBox="0 0 355 140" fill="none" xmlns="http://www.w3.org/2000/svg">
<path d="M89.4335 61.6585C89.8878 61.4432 90.4146 61.3503 90.9268 61.4359C91.4388 61.5213 91.8907 61.7737 92.1898 62.1462C92.4889 62.5187 92.6158 62.9874 92.5495 63.4573C92.4834 63.9274 92.2258 64.3561 91.8623 64.6845C90.1112 66.2707 88.4217 67.8891 86.7803 69.5379C72.0837 84.4361 60.969 101.31 50.8645 118.7C47.7177 124.18 44.5322 129.991 41.9106 135.352C38.9774 142.43 27.9196 140.658 27.9857 133.094C28.0122 133.34 28.0494 133.274 28.0362 133.127C28.0292 132.989 27.9822 132.739 27.9206 132.489C27.7846 131.948 27.5755 131.329 27.3072 130.652C26.7842 129.327 26.0979 127.908 25.3438 126.494C23.8384 123.673 22.0414 120.817 20.1167 118.061C16.2295 112.537 11.7795 107.216 6.44374 102.673C4.69979 101.199 2.85078 99.8158 0.85838 98.5891C0.510928 98.3781 0.228935 98.0734 0.091805 97.7075C-0.0454386 97.3419 -0.0289484 96.9492 0.142252 96.6073C0.313504 96.2655 0.628473 95.9964 1.02179 95.8508C1.41519 95.7051 1.85269 95.699 2.25554 95.7993C4.78812 96.451 7.25091 97.3558 9.61752 98.4244C16.8867 101.738 23.272 106.436 28.859 111.786C30.7712 113.628 32.6003 115.568 34.3172 117.622C35.2594 115.807 36.2429 114.013 37.2672 112.222C47.9969 93.6571 63.1444 76.5795 82.7697 65.1739C84.9432 63.9194 87.1644 62.7453 89.4335 61.6585Z" fill="#0D3B2A"/>
<path d="M141.16 13.1324C145.45 53.8431 136.56 84.6732 121.146 104.255C105.705 123.873 83.4506 132.313 62.3131 126.839L65.0789 117.993C81.1873 122.164 99.3613 116.137 112.93 98.899C125.357 83.1115 133.696 58.0179 131.885 23.8891C125.572 27.7956 117.811 29.8017 109.997 31.1301C103.972 32.1543 97.4992 32.835 91.1662 33.548C84.7561 34.2696 78.4151 35.0308 72.3074 36.217C60.0741 38.5928 49.432 42.5567 41.882 50.6282C34.3624 58.6673 29.2278 71.5245 29.8175 93.0233L19.7135 93.2528C19.0867 70.4046 24.5036 55.0172 34.1856 44.6663C43.8373 34.3478 57.0472 29.7758 70.1982 27.2218C76.7826 25.9431 83.517 25.1411 89.9255 24.4197C96.4111 23.6896 102.5 23.0476 108.141 22.0886C119.592 20.1418 127.58 17.1176 131.889 11.0698L139.775 0L141.16 13.1324Z" fill="#0D3B2A"/>
<path d="M291.79 126.042C291.374 126.042 291.022 125.898 290.734 125.61C290.446 125.322 290.302 124.97 290.302 124.554C290.302 124.138 290.446 123.786 290.734 123.498C291.022 123.21 291.374 123.066 291.79 123.066C292.19 123.066 292.526 123.21 292.798 123.498C293.086 123.786 293.23 124.138 293.23 124.554C293.23 124.97 293.086 125.322 292.798 125.61C292.526 125.898 292.19 126.042 291.79 126.042Z" fill="#0D3B2A"/>
<path d="M274.06 119.274C274.06 117.93 274.332 116.754 274.876 115.746C275.42 114.722 276.164 113.93 277.108 113.37C278.068 112.81 279.14 112.53 280.324 112.53C281.348 112.53 282.3 112.77 283.18 113.25C284.06 113.714 284.732 114.33 285.196 115.098V108.138H287.404V125.898H285.196V123.426C284.764 124.21 284.124 124.858 283.276 125.37C282.428 125.866 281.436 126.114 280.3 126.114C279.132 126.114 278.068 125.826 277.108 125.25C276.164 124.674 275.42 123.866 274.876 122.826C274.332 121.786 274.06 120.602 274.06 119.274ZM285.196 119.298C285.196 118.306 284.996 117.442 284.596 116.706C284.196 115.97 283.652 115.41 282.964 115.026C282.292 114.626 281.548 114.426 280.732 114.426C279.916 114.426 279.172 114.618 278.5 115.002C277.828 115.386 277.292 115.946 276.892 116.682C276.492 117.418 276.292 118.282 276.292 119.274C276.292 120.282 276.492 121.162 276.892 121.914C277.292 122.65 277.828 123.218 278.5 123.618C279.172 124.002 279.916 124.194 280.732 124.194C281.548 124.194 282.292 124.002 282.964 123.618C283.652 123.218 284.196 122.65 284.596 121.914C284.996 121.162 285.196 120.29 285.196 119.298Z" fill="#0D3B2A"/>
<path d="M268.797 114.546V122.298C268.797 122.938 268.933 123.394 269.205 123.666C269.477 123.922 269.949 124.05 270.621 124.05H272.229V125.898H270.261C269.045 125.898 268.133 125.618 267.525 125.058C266.917 124.498 266.613 123.578 266.613 122.298V114.546H264.909V112.746H266.613V109.434H268.797V112.746H272.229V114.546H268.797Z" fill="#0D3B2A"/>
<path d="M257.958 124.122H263.814V125.898H255.774V109.17H257.958V124.122Z" fill="#0D3B2A"/>
<path d="M333.082 74.8181C333.082 72.5248 333.549 70.5248 334.482 68.8181C335.415 67.0848 336.709 65.7515 338.362 64.8181C340.015 63.8581 341.909 63.3781 344.042 63.3781C346.789 63.3781 349.055 64.0715 350.842 65.4581C352.655 66.8181 353.869 68.7381 354.482 71.2181H348.442C348.122 70.2581 347.575 69.5115 346.802 68.9781C346.055 68.4181 345.122 68.1381 344.002 68.1381C342.402 68.1381 341.135 68.7248 340.202 69.8981C339.269 71.0448 338.802 72.6848 338.802 74.8181C338.802 76.9248 339.269 78.5648 340.202 79.7381C341.135 80.8848 342.402 81.4581 344.002 81.4581C346.269 81.4581 347.749 80.4448 348.442 78.4181H354.482C353.869 80.8181 352.655 82.7248 350.842 84.1381C349.029 85.5515 346.762 86.2581 344.042 86.2581C341.909 86.2581 340.015 85.7915 338.362 84.8581C336.709 83.8981 335.415 82.5648 334.482 80.8581C333.549 79.1248 333.082 77.1115 333.082 74.8181Z" fill="#0D3B2A"/>
<path d="M326.229 61.0981C325.242 61.0981 324.416 60.7915 323.749 60.1781C323.109 59.5381 322.789 58.7515 322.789 57.8181C322.789 56.8848 323.109 56.1115 323.749 55.4981C324.416 54.8581 325.242 54.5381 326.229 54.5381C327.216 54.5381 328.029 54.8581 328.669 55.4981C329.336 56.1115 329.669 56.8848 329.669 57.8181C329.669 58.7515 329.336 59.5381 328.669 60.1781C328.029 60.7915 327.216 61.0981 326.229 61.0981ZM328.989 63.7381V85.8981H323.389V63.7381H328.989Z" fill="#0D3B2A"/>
<path d="M309.224 63.4181C311.864 63.4181 313.997 64.2581 315.624 65.9381C317.25 67.5915 318.064 69.9115 318.064 72.8981V85.8981H312.464V73.6581C312.464 71.8981 312.024 70.5515 311.144 69.6181C310.264 68.6581 309.064 68.1781 307.544 68.1781C305.997 68.1781 304.77 68.6581 303.864 69.6181C302.984 70.5515 302.544 71.8981 302.544 73.6581V85.8981H296.944V63.7381H302.544V66.4981C303.29 65.5381 304.237 64.7915 305.384 64.2581C306.557 63.6981 307.837 63.4181 309.224 63.4181Z" fill="#0D3B2A"/>
<path d="M268.394 74.7381C268.394 72.4981 268.834 70.5115 269.714 68.7781C270.621 67.0448 271.834 65.7115 273.354 64.7781C274.901 63.8448 276.621 63.3781 278.514 63.3781C280.168 63.3781 281.608 63.7115 282.834 64.3781C284.088 65.0448 285.088 65.8848 285.834 66.8981V63.7381H291.474V85.8981H285.834V82.6581C285.114 83.6981 284.114 84.5648 282.834 85.2581C281.581 85.9248 280.128 86.2581 278.474 86.2581C276.608 86.2581 274.901 85.7781 273.354 84.8181C271.834 83.8581 270.621 82.5115 269.714 80.7781C268.834 79.0181 268.394 77.0048 268.394 74.7381ZM285.834 74.8181C285.834 73.4581 285.568 72.2981 285.034 71.3381C284.501 70.3515 283.781 69.6048 282.874 69.0981C281.968 68.5648 280.994 68.2981 279.954 68.2981C278.914 68.2981 277.954 68.5515 277.074 69.0581C276.194 69.5648 275.474 70.3115 274.914 71.2981C274.381 72.2581 274.114 73.4048 274.114 74.7381C274.114 76.0715 274.381 77.2448 274.914 78.2581C275.474 79.2448 276.194 80.0048 277.074 80.5381C277.981 81.0715 278.941 81.3381 279.954 81.3381C280.994 81.3381 281.968 81.0848 282.874 80.5781C283.781 80.0448 284.501 79.2981 285.034 78.3381C285.568 77.3515 285.834 76.1781 285.834 74.8181Z" fill="#0D3B2A"/>
<path d="M251.405 63.3781C253.058 63.3781 254.512 63.7115 255.765 64.3781C257.018 65.0181 258.005 65.8581 258.725 66.8981V63.7381H264.365V86.0581C264.365 88.1115 263.952 89.9381 263.125 91.5381C262.298 93.1648 261.058 94.4448 259.405 95.3781C257.752 96.3381 255.752 96.8181 253.405 96.8181C250.258 96.8181 247.672 96.0848 245.645 94.6181C243.645 93.1515 242.512 91.1515 242.245 88.6181H247.805C248.098 89.6315 248.725 90.4315 249.685 91.0181C250.672 91.6315 251.858 91.9381 253.245 91.9381C254.872 91.9381 256.192 91.4448 257.205 90.4581C258.218 89.4981 258.725 88.0315 258.725 86.0581V82.6181C258.005 83.6581 257.005 84.5248 255.725 85.2181C254.472 85.9115 253.032 86.2581 251.405 86.2581C249.538 86.2581 247.832 85.7781 246.285 84.8181C244.738 83.8581 243.512 82.5115 242.605 80.7781C241.725 79.0181 241.285 77.0048 241.285 74.7381C241.285 72.4981 241.725 70.5115 242.605 68.7781C243.512 67.0448 244.725 65.7115 246.245 64.7781C247.792 63.8448 249.512 63.3781 251.405 63.3781ZM258.725 74.8181C258.725 73.4581 258.458 72.2981 257.925 71.3381C257.392 70.3515 256.672 69.6048 255.765 69.0981C254.858 68.5648 253.885 68.2981 252.845 68.2981C251.805 68.2981 250.845 68.5515 249.965 69.0581C249.085 69.5648 248.365 70.3115 247.805 71.2981C247.272 72.2581 247.005 73.4048 247.005 74.7381C247.005 76.0715 247.272 77.2448 247.805 78.2581C248.365 79.2448 249.085 80.0048 249.965 80.5381C250.872 81.0715 251.832 81.3381 252.845 81.3381C253.885 81.3381 254.858 81.0848 255.765 80.5781C256.672 80.0448 257.392 79.2981 257.925 78.3381C258.458 77.3515 258.725 76.1781 258.725 74.8181Z" fill="#0D3B2A"/>
<path d="M232.153 67.1781C232.873 66.0048 233.806 65.0848 234.953 64.4181C236.126 63.7515 237.46 63.4181 238.953 63.4181V69.2981H237.473C235.713 69.2981 234.38 69.7115 233.473 70.5381C232.593 71.3648 232.153 72.8048 232.153 74.8581V85.8981H226.553V63.7381H232.153V67.1781Z" fill="#0D3B2A"/>
<path d="M208.107 86.1781C205.494 86.1781 203.094 85.5648 200.907 84.3381C198.72 83.1115 196.987 81.4181 195.707 79.2581C194.427 77.0715 193.787 74.6048 193.787 71.8581C193.787 69.1381 194.427 66.6981 195.707 64.5381C196.987 62.3515 198.72 60.6448 200.907 59.4181C203.094 58.1915 205.494 57.5781 208.107 57.5781C210.747 57.5781 213.147 58.1915 215.307 59.4181C217.494 60.6448 219.214 62.3515 220.467 64.5381C221.747 66.6981 222.387 69.1381 222.387 71.8581C222.387 74.6048 221.747 77.0715 220.467 79.2581C219.214 81.4181 217.494 83.1115 215.307 84.3381C213.12 85.5648 210.72 86.1781 208.107 86.1781ZM208.107 81.1781C209.787 81.1781 211.267 80.8048 212.547 80.0581C213.827 79.2848 214.827 78.1915 215.547 76.7781C216.267 75.3648 216.627 73.7248 216.627 71.8581C216.627 69.9915 216.267 68.3648 215.547 66.9781C214.827 65.5648 213.827 64.4848 212.547 63.7381C211.267 62.9915 209.787 62.6181 208.107 62.6181C206.427 62.6181 204.934 62.9915 203.627 63.7381C202.347 64.4848 201.347 65.5648 200.627 66.9781C199.907 68.3648 199.547 69.9915 199.547 71.8581C199.547 73.7248 199.907 75.3648 200.627 76.7781C201.347 78.1915 202.347 79.2848 203.627 80.0581C204.934 80.8048 206.427 81.1781 208.107 81.1781Z" fill="#0D3B2A"/>
<path d="M316.276 28.3381V39.0581C316.276 39.8048 316.45 40.3515 316.796 40.6981C317.17 41.0181 317.783 41.1781 318.636 41.1781H321.236V45.8981H317.716C312.996 45.8981 310.636 43.6048 310.636 39.0181V28.3381H307.996V23.7381H310.636V18.2581H316.276V23.7381H321.236V28.3381H316.276Z" fill="#0D3B2A"/>
<path d="M301.463 21.0981C300.477 21.0981 299.65 20.7915 298.983 20.1781C298.343 19.5381 298.023 18.7515 298.023 17.8181C298.023 16.8848 298.343 16.1115 298.983 15.4981C299.65 14.8581 300.477 14.5381 301.463 14.5381C302.45 14.5381 303.263 14.8581 303.903 15.4981C304.57 16.1115 304.903 16.8848 304.903 17.8181C304.903 18.7515 304.57 19.5381 303.903 20.1781C303.263 20.7915 302.45 21.0981 301.463 21.0981Z" fill="#F4C430"/>
<path d="M304.223 23.7381V45.8981H298.623V23.7381H304.223Z" fill="#0D3B2A"/>
<path d="M280.194 23.3781C281.847 23.3781 283.301 23.7115 284.554 24.3781C285.807 25.0181 286.794 25.8581 287.514 26.8981V23.7381H293.154V46.0581C293.154 48.1115 292.741 49.9381 291.914 51.5381C291.087 53.1648 289.847 54.4448 288.194 55.3781C286.541 56.3381 284.541 56.8181 282.194 56.8181C279.047 56.8181 276.461 56.0848 274.434 54.6181C272.434 53.1515 271.301 51.1515 271.034 48.6181H276.594C276.887 49.6315 277.514 50.4315 278.474 51.0181C279.461 51.6315 280.647 51.9381 282.034 51.9381C283.661 51.9381 284.981 51.4448 285.994 50.4581C287.007 49.4981 287.514 48.0315 287.514 46.0581V42.6181C286.794 43.6581 285.794 44.5248 284.514 45.2181C283.261 45.9115 281.821 46.2581 280.194 46.2581C278.327 46.2581 276.621 45.7781 275.074 44.8181C273.527 43.8581 272.301 42.5115 271.394 40.7781C270.514 39.0181 270.074 37.0048 270.074 34.7381C270.074 32.4981 270.514 30.5115 271.394 28.7781C272.301 27.0448 273.514 25.7115 275.034 24.7781C276.581 23.8448 278.301 23.3781 280.194 23.3781ZM287.514 34.8181C287.514 33.4581 287.247 32.2981 286.714 31.3381C286.181 30.3515 285.461 29.6048 284.554 29.0981C283.647 28.5648 282.674 28.2981 281.634 28.2981C280.594 28.2981 279.634 28.5515 278.754 29.0581C277.874 29.5648 277.154 30.3115 276.594 31.2981C276.061 32.2581 275.794 33.4048 275.794 34.7381C275.794 36.0715 276.061 37.2448 276.594 38.2581C277.154 39.2448 277.874 40.0048 278.754 40.5381C279.661 41.0715 280.621 41.3381 281.634 41.3381C282.674 41.3381 283.647 41.0848 284.554 40.5781C285.461 40.0448 286.181 39.2981 286.714 38.3381C287.247 37.3515 287.514 36.1781 287.514 34.8181Z" fill="#0D3B2A"/>
<path d="M267.427 34.3381C267.427 35.1381 267.373 35.8581 267.267 36.4981H251.067C251.2 38.0981 251.76 39.3515 252.747 40.2581C253.733 41.1648 254.947 41.6181 256.387 41.6181C258.467 41.6181 259.947 40.7248 260.827 38.9381H266.867C266.227 41.0715 265 42.8315 263.187 44.2181C261.373 45.5781 259.147 46.2581 256.507 46.2581C254.373 46.2581 252.453 45.7915 250.747 44.8581C249.067 43.8981 247.747 42.5515 246.787 40.8181C245.853 39.0848 245.387 37.0848 245.387 34.8181C245.387 32.5248 245.853 30.5115 246.787 28.7781C247.72 27.0448 249.027 25.7115 250.707 24.7781C252.387 23.8448 254.32 23.3781 256.507 23.3781C258.613 23.3781 260.493 23.8315 262.147 24.7381C263.827 25.6448 265.12 26.9381 266.027 28.6181C266.96 30.2715 267.427 32.1781 267.427 34.3381ZM261.627 32.7381C261.6 31.2981 261.08 30.1515 260.067 29.2981C259.053 28.4181 257.813 27.9781 256.347 27.9781C254.96 27.9781 253.787 28.4048 252.827 29.2581C251.893 30.0848 251.32 31.2448 251.107 32.7381H261.627Z" fill="#0D3B2A"/>
<path d="M234.067 41.4581H243.267V45.8981H228.467V17.9781H234.067V41.4581Z" fill="#0D3B2A"/>
</svg>
