<svg width="355" height="140" viewBox="0 0 355 140" fill="none" xmlns="http://www.w3.org/2000/svg">
<path d="M291.79 130.042C291.374 130.042 291.022 129.898 290.734 129.61C290.446 129.322 290.302 128.97 290.302 128.554C290.302 128.138 290.446 127.786 290.734 127.498C291.022 127.21 291.374 127.066 291.79 127.066C292.19 127.066 292.526 127.21 292.798 127.498C293.086 127.786 293.23 128.138 293.23 128.554C293.23 128.97 293.086 129.322 292.798 129.61C292.526 129.898 292.19 130.042 291.79 130.042Z" fill="#F5F0E6"/>
<path d="M274.059 123.274C274.059 121.93 274.331 120.754 274.875 119.746C275.419 118.722 276.163 117.93 277.107 117.37C278.067 116.81 279.139 116.53 280.323 116.53C281.347 116.53 282.299 116.77 283.179 117.25C284.059 117.714 284.731 118.33 285.195 119.098V112.138H287.403V129.898H285.195V127.426C284.763 128.21 284.123 128.858 283.275 129.37C282.427 129.866 281.435 130.114 280.299 130.114C279.131 130.114 278.067 129.826 277.107 129.25C276.163 128.674 275.419 127.866 274.875 126.826C274.331 125.786 274.059 124.602 274.059 123.274ZM285.195 123.298C285.195 122.306 284.995 121.442 284.595 120.706C284.195 119.97 283.652 119.41 282.964 119.026C282.292 118.626 281.547 118.426 280.731 118.426C279.915 118.426 279.171 118.618 278.499 119.002C277.827 119.386 277.291 119.946 276.891 120.682C276.491 121.418 276.291 122.282 276.291 123.274C276.291 124.282 276.491 125.162 276.891 125.914C277.291 126.65 277.827 127.218 278.499 127.618C279.171 128.002 279.915 128.194 280.731 128.194C281.547 128.194 282.292 128.002 282.964 127.618C283.652 127.218 284.195 126.65 284.595 125.914C284.995 125.162 285.195 124.29 285.195 123.298Z" fill="#F5F0E6"/>
<path d="M268.797 118.546V126.298C268.797 126.938 268.933 127.394 269.205 127.666C269.477 127.922 269.949 128.05 270.621 128.05H272.229V129.898H270.261C269.045 129.898 268.133 129.618 267.525 129.058C266.917 128.498 266.613 127.578 266.613 126.298V118.546H264.909V116.746H266.613V113.434H268.797V116.746H272.229V118.546H268.797Z" fill="#F5F0E6"/>
<path d="M257.958 128.122H263.814V129.898H255.774V113.17H257.958V128.122Z" fill="#F5F0E6"/>
<path d="M333.082 78.8182C333.082 76.5248 333.549 74.5248 334.482 72.8182C335.415 71.0848 336.709 69.7515 338.362 68.8182C340.015 67.8582 341.909 67.3782 344.042 67.3782C346.789 67.3782 349.055 68.0715 350.842 69.4582C352.655 70.8182 353.869 72.7382 354.482 75.2182H348.442C348.122 74.2582 347.575 73.5115 346.802 72.9782C346.055 72.4182 345.122 72.1382 344.002 72.1382C342.402 72.1382 341.135 72.7248 340.202 73.8982C339.269 75.0448 338.802 76.6848 338.802 78.8182C338.802 80.9248 339.269 82.5648 340.202 83.7382C341.135 84.8848 342.402 85.4582 344.002 85.4582C346.269 85.4582 347.749 84.4448 348.442 82.4182H354.482C353.869 84.8182 352.655 86.7248 350.842 88.1382C349.029 89.5515 346.762 90.2582 344.042 90.2582C341.909 90.2582 340.015 89.7915 338.362 88.8582C336.709 87.8982 335.415 86.5648 334.482 84.8582C333.549 83.1248 333.082 81.1115 333.082 78.8182Z" fill="#F5F0E6"/>
<path d="M326.229 65.0981C325.242 65.0981 324.416 64.7914 323.749 64.1781C323.109 63.5381 322.789 62.7514 322.789 61.8181C322.789 60.8848 323.109 60.1114 323.749 59.4981C324.416 58.8581 325.242 58.5381 326.229 58.5381C327.216 58.5381 328.029 58.8581 328.669 59.4981C329.336 60.1114 329.669 60.8848 329.669 61.8181C329.669 62.7514 329.336 63.5381 328.669 64.1781C328.029 64.7914 327.216 65.0981 326.229 65.0981ZM328.989 67.7381V89.8981H323.389V67.7381H328.989Z" fill="#F5F0E6"/>
<path d="M309.224 67.418C311.864 67.418 313.997 68.258 315.624 69.938C317.25 71.5913 318.064 73.9113 318.064 76.898V89.898H312.464V77.658C312.464 75.898 312.024 74.5513 311.144 73.618C310.264 72.658 309.064 72.178 307.544 72.178C305.997 72.178 304.77 72.658 303.864 73.618C302.984 74.5513 302.544 75.898 302.544 77.658V89.898H296.944V67.738H302.544V70.498C303.29 69.538 304.237 68.7913 305.384 68.258C306.557 67.698 307.837 67.418 309.224 67.418Z" fill="#F5F0E6"/>
<path d="M268.394 78.7382C268.394 76.4982 268.834 74.5115 269.714 72.7782C270.621 71.0448 271.834 69.7115 273.354 68.7782C274.901 67.8448 276.621 67.3782 278.514 67.3782C280.168 67.3782 281.608 67.7115 282.834 68.3782C284.088 69.0448 285.088 69.8848 285.834 70.8982V67.7382H291.474V89.8982H285.834V86.6582C285.114 87.6982 284.114 88.5648 282.834 89.2582C281.581 89.9248 280.128 90.2582 278.474 90.2582C276.608 90.2582 274.901 89.7782 273.354 88.8182C271.834 87.8582 270.621 86.5115 269.714 84.7782C268.834 83.0182 268.394 81.0048 268.394 78.7382ZM285.834 78.8182C285.834 77.4582 285.568 76.2982 285.034 75.3382C284.501 74.3515 283.781 73.6048 282.874 73.0982C281.968 72.5648 280.994 72.2982 279.954 72.2982C278.914 72.2982 277.954 72.5515 277.074 73.0582C276.194 73.5648 275.474 74.3115 274.914 75.2982C274.381 76.2582 274.114 77.4048 274.114 78.7382C274.114 80.0715 274.381 81.2448 274.914 82.2582C275.474 83.2448 276.194 84.0048 277.074 84.5382C277.981 85.0715 278.941 85.3382 279.954 85.3382C280.994 85.3382 281.968 85.0848 282.874 84.5782C283.781 84.0448 284.501 83.2982 285.034 82.3382C285.568 81.3515 285.834 80.1782 285.834 78.8182Z" fill="#F5F0E6"/>
<path d="M251.405 67.3782C253.058 67.3782 254.512 67.7115 255.765 68.3782C257.018 69.0182 258.005 69.8582 258.725 70.8982V67.7382H264.365V90.0582C264.365 92.1115 263.952 93.9382 263.125 95.5382C262.298 97.1648 261.058 98.4448 259.405 99.3782C257.752 100.338 255.752 100.818 253.405 100.818C250.258 100.818 247.672 100.085 245.645 98.6182C243.645 97.1515 242.512 95.1515 242.245 92.6182H247.805C248.098 93.6315 248.725 94.4315 249.685 95.0182C250.672 95.6315 251.858 95.9382 253.245 95.9382C254.872 95.9382 256.192 95.4448 257.205 94.4582C258.218 93.4982 258.725 92.0315 258.725 90.0582V86.6182C258.005 87.6582 257.005 88.5248 255.725 89.2182C254.472 89.9115 253.032 90.2582 251.405 90.2582C249.538 90.2582 247.832 89.7782 246.285 88.8182C244.738 87.8582 243.512 86.5115 242.605 84.7782C241.725 83.0182 241.285 81.0048 241.285 78.7382C241.285 76.4982 241.725 74.5115 242.605 72.7782C243.512 71.0448 244.725 69.7115 246.245 68.7782C247.792 67.8448 249.512 67.3782 251.405 67.3782ZM258.725 78.8182C258.725 77.4582 258.458 76.2982 257.925 75.3382C257.392 74.3515 256.672 73.6048 255.765 73.0982C254.858 72.5648 253.885 72.2982 252.845 72.2982C251.805 72.2982 250.845 72.5515 249.965 73.0582C249.085 73.5648 248.365 74.3115 247.805 75.2982C247.272 76.2582 247.005 77.4048 247.005 78.7382C247.005 80.0715 247.272 81.2448 247.805 82.2582C248.365 83.2448 249.085 84.0048 249.965 84.5382C250.872 85.0715 251.832 85.3382 252.845 85.3382C253.885 85.3382 254.858 85.0848 255.765 84.5782C256.672 84.0448 257.392 83.2982 257.925 82.3382C258.458 81.3515 258.725 80.1782 258.725 78.8182Z" fill="#F5F0E6"/>
<path d="M232.153 71.178C232.873 70.0046 233.806 69.0846 234.953 68.418C236.126 67.7513 237.46 67.418 238.953 67.418V73.298H237.473C235.713 73.298 234.38 73.7113 233.473 74.538C232.593 75.3646 232.153 76.8046 232.153 78.858V89.898H226.553V67.738H232.153V71.178Z" fill="#F5F0E6"/>
<path d="M208.107 90.1781C205.494 90.1781 203.094 89.5648 200.907 88.3381C198.72 87.1115 196.987 85.4181 195.707 83.2581C194.427 81.0715 193.787 78.6048 193.787 75.8581C193.787 73.1381 194.427 70.6981 195.707 68.5381C196.987 66.3515 198.72 64.6448 200.907 63.4181C203.094 62.1915 205.494 61.5781 208.107 61.5781C210.747 61.5781 213.147 62.1915 215.307 63.4181C217.494 64.6448 219.214 66.3515 220.467 68.5381C221.747 70.6981 222.387 73.1381 222.387 75.8581C222.387 78.6048 221.747 81.0715 220.467 83.2581C219.214 85.4181 217.494 87.1115 215.307 88.3381C213.12 89.5648 210.72 90.1781 208.107 90.1781ZM208.107 85.1781C209.787 85.1781 211.267 84.8048 212.547 84.0581C213.827 83.2848 214.827 82.1915 215.547 80.7781C216.267 79.3648 216.627 77.7248 216.627 75.8581C216.627 73.9915 216.267 72.3648 215.547 70.9781C214.827 69.5648 213.827 68.4848 212.547 67.7381C211.267 66.9915 209.787 66.6181 208.107 66.6181C206.427 66.6181 204.934 66.9915 203.627 67.7381C202.347 68.4848 201.347 69.5648 200.627 70.9781C199.907 72.3648 199.547 73.9915 199.547 75.8581C199.547 77.7248 199.907 79.3648 200.627 80.7781C201.347 82.1915 202.347 83.2848 203.627 84.0581C204.934 84.8048 206.427 85.1781 208.107 85.1781Z" fill="#F5F0E6"/>
<path d="M316.276 32.3381V43.0581C316.276 43.8047 316.45 44.3514 316.796 44.6981C317.17 45.0181 317.783 45.1781 318.636 45.1781H321.236V49.8981H317.716C312.996 49.8981 310.636 47.6047 310.636 43.0181V32.3381H307.996V27.7381H310.636V22.2581H316.276V27.7381H321.236V32.3381H316.276Z" fill="#F5F0E6"/>
<path d="M301.463 25.0981C300.477 25.0981 299.65 24.7914 298.983 24.1781C298.343 23.5381 298.023 22.7514 298.023 21.8181C298.023 20.8848 298.343 20.1114 298.983 19.4981C299.65 18.8581 300.477 18.5381 301.463 18.5381C302.45 18.5381 303.263 18.8581 303.903 19.4981C304.57 20.1114 304.903 20.8848 304.903 21.8181C304.903 22.7514 304.57 23.5381 303.903 24.1781C303.263 24.7914 302.45 25.0981 301.463 25.0981Z" fill="#F4C430"/>
<path d="M304.223 27.738V49.898H298.623V27.738H304.223Z" fill="#F5F0E6"/>
<path d="M280.194 27.3782C281.847 27.3782 283.301 27.7115 284.554 28.3782C285.807 29.0182 286.794 29.8582 287.514 30.8982V27.7382H293.154V50.0582C293.154 52.1115 292.741 53.9382 291.914 55.5382C291.087 57.1648 289.847 58.4448 288.194 59.3782C286.541 60.3382 284.541 60.8182 282.194 60.8182C279.047 60.8182 276.461 60.0848 274.434 58.6182C272.434 57.1515 271.301 55.1515 271.034 52.6182H276.594C276.887 53.6315 277.514 54.4315 278.474 55.0182C279.461 55.6315 280.647 55.9382 282.034 55.9382C283.661 55.9382 284.981 55.4448 285.994 54.4582C287.007 53.4982 287.514 52.0315 287.514 50.0582V46.6182C286.794 47.6582 285.794 48.5248 284.514 49.2182C283.261 49.9115 281.821 50.2582 280.194 50.2582C278.327 50.2582 276.621 49.7782 275.074 48.8182C273.527 47.8582 272.301 46.5115 271.394 44.7782C270.514 43.0182 270.074 41.0048 270.074 38.7382C270.074 36.4982 270.514 34.5115 271.394 32.7782C272.301 31.0448 273.514 29.7115 275.034 28.7782C276.581 27.8448 278.301 27.3782 280.194 27.3782ZM287.514 38.8182C287.514 37.4582 287.247 36.2982 286.714 35.3382C286.181 34.3515 285.461 33.6048 284.554 33.0982C283.647 32.5648 282.674 32.2982 281.634 32.2982C280.594 32.2982 279.634 32.5515 278.754 33.0582C277.874 33.5648 277.154 34.3115 276.594 35.2982C276.061 36.2582 275.794 37.4048 275.794 38.7382C275.794 40.0715 276.061 41.2448 276.594 42.2582C277.154 43.2448 277.874 44.0048 278.754 44.5382C279.661 45.0715 280.621 45.3382 281.634 45.3382C282.674 45.3382 283.647 45.0848 284.554 44.5782C285.461 44.0448 286.181 43.2982 286.714 42.3382C287.247 41.3515 287.514 40.1782 287.514 38.8182Z" fill="#F5F0E6"/>
<path d="M267.427 38.3382C267.427 39.1382 267.373 39.8582 267.267 40.4982H251.067C251.2 42.0982 251.76 43.3515 252.747 44.2582C253.733 45.1648 254.947 45.6182 256.387 45.6182C258.467 45.6182 259.947 44.7248 260.827 42.9382H266.867C266.227 45.0715 265 46.8315 263.187 48.2182C261.373 49.5782 259.147 50.2582 256.507 50.2582C254.373 50.2582 252.453 49.7915 250.747 48.8582C249.067 47.8982 247.747 46.5515 246.787 44.8182C245.853 43.0848 245.387 41.0848 245.387 38.8182C245.387 36.5248 245.853 34.5115 246.787 32.7782C247.72 31.0448 249.027 29.7115 250.707 28.7782C252.387 27.8448 254.32 27.3782 256.507 27.3782C258.613 27.3782 260.493 27.8315 262.147 28.7382C263.827 29.6448 265.12 30.9382 266.027 32.6182C266.96 34.2715 267.427 36.1782 267.427 38.3382ZM261.627 36.7382C261.6 35.2982 261.08 34.1515 260.067 33.2982C259.053 32.4182 257.813 31.9782 256.347 31.9782C254.96 31.9782 253.787 32.4048 252.827 33.2582C251.893 34.0848 251.32 35.2448 251.107 36.7382H261.627Z" fill="#F5F0E6"/>
<path d="M234.067 45.458H243.267V49.898H228.467V21.978H234.067V45.458Z" fill="#F5F0E6"/>
<path d="M89.4335 61.6585C89.8878 61.4432 90.4146 61.3503 90.9268 61.4359C91.4388 61.5213 91.8907 61.7737 92.1898 62.1462C92.4889 62.5187 92.6158 62.9874 92.5495 63.4573C92.4834 63.9274 92.2258 64.3561 91.8623 64.6845C90.1112 66.2707 88.4217 67.8891 86.7803 69.5379C72.0837 84.4361 60.969 101.31 50.8645 118.7C47.7177 124.18 44.5322 129.991 41.9106 135.352C38.9774 142.43 27.9196 140.658 27.9857 133.094C28.0122 133.34 28.0494 133.274 28.0362 133.127C28.0292 132.989 27.9822 132.739 27.9206 132.489C27.7846 131.948 27.5755 131.329 27.3072 130.652C26.7842 129.327 26.0979 127.908 25.3438 126.494C23.8384 123.673 22.0414 120.817 20.1167 118.061C16.2295 112.537 11.7795 107.216 6.44374 102.673C4.69979 101.199 2.85078 99.8158 0.85838 98.5891C0.510928 98.3781 0.228935 98.0734 0.091805 97.7075C-0.0454386 97.3419 -0.0289484 96.9492 0.142252 96.6073C0.313504 96.2655 0.628473 95.9964 1.02178 95.8508C1.41519 95.7051 1.85269 95.699 2.25554 95.7993C4.78812 96.451 7.25091 97.3558 9.61752 98.4244C16.8867 101.738 23.272 106.436 28.859 111.786C30.7712 113.628 32.6003 115.568 34.3172 117.622C35.2594 115.807 36.2429 114.013 37.2672 112.222C47.9969 93.6571 63.1444 76.5795 82.7697 65.1739C84.9432 63.9194 87.1644 62.7453 89.4335 61.6585Z" fill="#F5F0E6"/>
<path d="M141.16 13.1324C145.45 53.8431 136.56 84.6732 121.146 104.255C105.705 123.873 83.4506 132.313 62.3131 126.839L65.0789 117.993C81.1873 122.164 99.3613 116.137 112.93 98.899C125.357 83.1115 133.696 58.0179 131.885 23.8891C125.572 27.7956 117.811 29.8017 109.997 31.1301C103.972 32.1543 97.4992 32.835 91.1662 33.548C84.7561 34.2696 78.4152 35.0308 72.3075 36.217C60.0741 38.5928 49.432 42.5567 41.8821 50.6282C34.3624 58.6673 29.2278 71.5245 29.8175 93.0233L19.7135 93.2528C19.0867 70.4046 24.5036 55.0172 34.1856 44.6663C43.8373 34.3478 57.0472 29.7758 70.1982 27.2218C76.7826 25.9431 83.517 25.1411 89.9255 24.4197C96.4112 23.6896 102.5 23.0476 108.141 22.0886C119.592 20.1418 127.58 17.1176 131.889 11.0698L139.775 0L141.16 13.1324Z" fill="#F5F0E6"/>
</svg>
