<svg width="380" height="411" viewBox="0 0 380 411" fill="none" xmlns="http://www.w3.org/2000/svg">
<path d="M238.915 180.997C240.129 180.365 241.536 180.093 242.904 180.344C244.272 180.595 245.479 181.336 246.278 182.429C247.077 183.523 247.417 184.898 247.239 186.278C247.063 187.658 246.375 188.916 245.403 189.88C240.726 194.537 236.212 199.287 231.827 204.127C192.566 247.861 162.874 297.393 135.881 348.442C127.474 364.527 118.965 381.588 111.961 397.323C104.125 418.1 74.5852 412.9 74.7618 390.695C74.8326 391.416 74.9319 391.223 74.8966 390.793C74.878 390.387 74.7524 389.652 74.588 388.918C74.2245 387.331 73.666 385.514 72.9493 383.526C71.5521 379.637 69.7186 375.472 67.7042 371.32C63.6825 363.041 58.8821 354.657 53.7404 346.566C43.3559 330.351 31.4681 314.73 17.214 301.394C12.5551 297.068 7.61566 293.008 2.2931 289.407C1.36491 288.787 0.611583 287.893 0.245251 286.819C-0.121386 285.746 -0.0773336 284.593 0.380016 283.589C0.837504 282.586 1.67892 281.796 2.72963 281.369C3.78058 280.941 4.94933 280.923 6.02552 281.217C12.7911 283.13 19.3703 285.786 25.6925 288.923C45.1115 298.649 62.1696 312.441 77.0949 328.145C82.2031 333.553 87.0893 339.249 91.6759 345.278C94.1929 339.951 96.8203 334.684 99.5568 329.426C128.22 274.929 168.686 224.798 221.113 191.317C226.92 187.634 232.854 184.188 238.915 180.997Z" fill="#F5F0E6"/>
<path d="M377.098 38.5498C388.56 158.055 364.811 248.557 323.634 306.039C282.382 363.626 222.932 388.402 166.465 372.335L173.854 346.365C216.886 358.609 265.437 340.918 301.685 290.316C334.883 243.973 357.16 170.311 352.321 70.126C335.455 81.5937 314.723 87.4824 293.85 91.3818C277.755 94.3885 260.462 96.3867 243.544 98.4795C226.42 100.598 209.48 102.832 193.164 106.314C160.484 113.289 132.054 124.924 111.885 148.618C91.7967 172.217 78.0799 209.959 79.6554 273.068L52.6632 273.742C50.9888 206.671 65.4595 161.502 91.3243 131.117C117.108 100.827 152.398 87.4065 187.529 79.9092C205.119 76.1554 223.11 73.8013 240.23 71.6836C257.555 69.5404 273.822 67.6559 288.891 64.8408C319.482 59.126 340.822 50.2484 352.332 32.4951L373.4 0L377.098 38.5498Z" fill="#F5F0E6"/>
</svg>
